<?xml version="1.0" standalone="no"?>
<!DOCTYPE svg PUBLIC "-//W3C//DTD SVG 20010904//EN"
 "http://www.w3.org/TR/2001/REC-SVG-20010904/DTD/svg10.dtd">
<svg version="1.0" xmlns="http://www.w3.org/2000/svg"
 width="128.000000pt" height="128.000000pt" viewBox="0 0 128.000000 128.000000"
 preserveAspectRatio="xMidYMid meet">
<metadata>
Created by potrace 1.11, written by Peter Selinger 2001-2013
</metadata>
<g transform="translate(0.000000,128.000000) scale(0.100000,-0.100000)"
fill="#000000" stroke="none">
<path d="M438 1235 c-2 -2 -28 -6 -58 -9 -129 -15 -208 -51 -240 -108 -19 -35
-22 -50 -17 -112 3 -39 15 -111 26 -159 12 -48 21 -89 21 -90 0 -1 -21 -2 -47
-2 -60 0 -99 -26 -114 -77 -19 -61 1 -111 62 -154 43 -31 49 -41 50 -72 4
-135 23 -229 59 -289 11 -19 20 -45 20 -59 0 -29 32 -64 60 -64 26 0 60 34 60
60 0 20 7 20 320 20 313 0 320 0 320 -20 0 -26 34 -60 60 -60 28 0 60 35 60
64 0 14 9 40 19 58 28 47 49 135 56 235 4 48 9 91 12 96 2 4 23 19 45 33 77
49 88 142 25 201 -29 26 -42 31 -81 30 -45 -2 -45 -2 -40 28 3 17 11 52 19 78
22 74 29 180 15 222 -35 108 -192 153 -527 153 -100 -1 -184 -2 -185 -3z"/>
</g>
</svg>
